<svg id="Capa_1" data-name="Capa 1" xmlns="http://www.w3.org/2000/svg" xmlns:xlink="http://www.w3.org/1999/xlink" width="159.39" height="79.51" viewBox="0 0 159.39 79.51">
  <defs>
    <style>
      .cls-1 {
        clip-path: url(#clip-path);
      }

      .cls-2 {
        fill: #636569;
      }
    </style>
    <clipPath id="clip-path" transform="translate(-113.27 -141.06)"/>
  </defs>
  <title>logo_BDS</title>
  <g class="cls-1">
    <path class="cls-2" d="M239.75,157.63c-4.89,0-8.12,1.78-8.12,5.34,0,12.9,41,5.56,41,33.58,0,15.9-14,24-31.36,24-13,0-26.58-4.78-35.92-12.45l7.89-15.91c8,6.9,20.13,11.79,28.25,11.79,6,0,9.79-2.22,9.79-6.34,0-13.23-41-5.22-41-32.8,0-14.57,12.35-23.8,31.14-23.8,11.45,0,23,3.56,31.14,8.78L264.88,166c-8.23-4.67-18.68-8.34-25.13-8.34" transform="translate(-113.27 -141.06)"/>
    <path class="cls-2" d="M140.52,195.66c0-4.89-4.45-8-11.57-8H113.27v16.46H129c7.12,0,11.57-3.11,11.57-8.45" transform="translate(-113.27 -141.06)"/>
    <path class="cls-2" d="M129,157.85H113.27V173H129c5.56,0,9.12-2.89,9.12-7.78,0-4.67-3.56-7.34-9.12-7.34" transform="translate(-113.27 -141.06)"/>
    <path class="cls-2" d="M184.17,142H130.06c17.69,0,28.92,7.67,28.92,19.68,0,8.12-5.23,14.68-13.46,16.9,9.9,2,16,9.68,16,19.69,0,13.34-11.72,21.68-30,21.68h51.88c25.24,0,42.26-15.79,42.26-39S208.86,142,184.17,142m.56,61.49H170.94V158.52h12.78c12.35,0,21.13,9.12,21.13,22.57s-8.34,22.35-20.12,22.35" transform="translate(-113.27 -141.06)"/>
  </g>
</svg>
